<svg xmlns="http://www.w3.org/2000/svg" x="0px" y="0px"
width="50" height="50"
viewBox="0 0 172 172"
style=" fill:#000000;"><g fill="none" fill-rule="nonzero" stroke="none" stroke-width="1" stroke-linecap="butt" stroke-linejoin="miter" stroke-miterlimit="10" stroke-dasharray="" stroke-dashoffset="0" font-family="none" font-weight="none" font-size="none" text-anchor="none" style="mix-blend-mode: normal"><path d="M0,172v-172h172v172z" fill="none"></path><g fill="#e74c3c"><path d="M85.57,6.88c-0.9675,0.14781 -1.8275,0.68531 -2.365,1.505c0,0 -6.15437,8.82844 -12.255,19.35c-3.05031,5.25406 -6.04687,10.91125 -8.385,16.2325c-2.33812,5.32125 -4.085,10.14531 -4.085,14.5125c0,13.98844 10.54844,25.585 24.08,27.305v7.095h-20.64c-0.1075,0 -0.215,0 -0.3225,0c-0.25531,0.04031 -0.51062,0.12094 -0.7525,0.215l-41.28,13.76c-1.3975,0.45688 -2.35156,1.76031 -2.365,3.225v51.6c0,1.89469 1.54531,3.44 3.44,3.44h130.72c1.89469,0 3.44,-1.54531 3.44,-3.44v-51.6c-0.01344,-1.46469 -0.9675,-2.76812 -2.365,-3.225l-41.28,-13.76c-0.34937,-0.13437 -0.71219,-0.20156 -1.075,-0.215h-20.64v-7.095c13.53156,-1.72 24.08,-13.31656 24.08,-27.305c0,-4.36719 -1.74687,-9.19125 -4.085,-14.5125c-2.33812,-5.32125 -5.33469,-10.97844 -8.385,-16.2325c-6.10062,-10.52156 -12.255,-19.35 -12.255,-19.35c-0.71219,-1.06156 -1.94844,-1.63937 -3.225,-1.505zM86,16.77c1.90813,2.82188 4.50156,6.59781 9.03,14.405c2.96969,5.11969 5.99313,10.6425 8.17,15.5875c2.17688,4.945 3.44,9.43313 3.44,11.7175c0,11.22031 -8.85531,20.30406 -19.995,20.64c-0.43,-0.08062 -0.86,-0.08062 -1.29,0c-11.13969,-0.33594 -19.995,-9.41969 -19.995,-20.64c0,-2.28437 1.26313,-6.7725 3.44,-11.7175c2.17688,-4.945 5.20031,-10.46781 8.17,-15.5875c4.52844,-7.80719 7.12188,-11.58312 9.03,-14.405zM86,44.72c0,0 -10.32,14.9425 -10.32,20.64c0,5.6975 4.6225,10.32 10.32,10.32c5.6975,0 10.32,-4.6225 10.32,-10.32c0,-5.6975 -10.32,-20.64 -10.32,-20.64zM62.35,99.76h47.3l38.27,12.7925v45.6875h-123.84v-45.6875z"></path></g></g></svg>